<?xml version="1.0" encoding="iso-8859-1"?>
<!-- Uploaded to: SVG Repo, www.svgrepo.com, Generator: SVG Repo Mixer Tools -->
<svg version="1.1" id="Layer_1" xmlns="http://www.w3.org/2000/svg" xmlns:xlink="http://www.w3.org/1999/xlink" 
	 viewBox="0 0 512 512" xml:space="preserve">
<circle style="fill:#273B7A;" cx="256" cy="256" r="256"/>
<path style="fill:#121149;" d="M188.768,253.988l-70.011,91.124l165.347,165.347c110.392-12.055,199.68-94.284,222.322-201.14
	L356.657,159.551L338.13,186.33l-56.734-56.734l-39.226,0.534l-16.115,16.113l-4.884,52.867l-1.372,12.355l-24.71,25.571
	L188.768,253.988z"/>
<rect x="128.098" y="159.542" transform="matrix(-0.9949 -0.1005 0.1005 -0.9949 425.0694 536.3963)" style="fill:#FEE187;" width="195.897" height="195.897"/>
<rect x="160.754" y="159.547" style="fill:#EAA22F;" width="195.905" height="195.905"/>
<rect x="254.569" y="159.547" style="fill:#FF5419;" width="102.09" height="195.905"/>
<path style="fill:#FFFFFF;" d="M242.381,262.447c-11.729,0-21.273-9.544-21.273-21.273v-81.624c0-20.73,16.867-37.598,37.598-37.598
	s37.598,16.867,37.598,37.598h-9.895c0-15.276-12.426-27.701-27.701-27.701s-27.705,12.424-27.705,27.701v81.623
	c0,6.275,5.103,11.378,11.378,11.378s11.378-5.103,11.378-11.378v-81.623h9.895v81.623
	C263.652,252.904,254.109,262.447,242.381,262.447z"/>
</svg>